<?xml version="1.0" standalone="no"?>
<!DOCTYPE svg PUBLIC "-//W3C//DTD SVG 20010904//EN"
 "http://www.w3.org/TR/2001/REC-SVG-20010904/DTD/svg10.dtd">
<svg version="1.0" xmlns="http://www.w3.org/2000/svg"
 width="22.000000pt" height="22.000000pt" viewBox="0 0 50.000000 50.000000"
 preserveAspectRatio="xMidYMid meet">

<g transform="translate(0.000000,50.000000) scale(0.100000,-0.100000)"
fill="#b9c4b9" stroke="none">
<path d="M174 458 c-4 -14 -1 -25 10 -33 23 -18 20 -35 -8 -35 -32 0 -44 -17
-67 -92 -22 -72 -25 -143 -6 -155 17 -10 268 -12 290 -1 22 11 22 59 1 142
-20 79 -38 106 -69 106 -28 0 -33 17 -9 35 11 8 14 19 10 33 -7 20 -14 22 -76
22 -62 0 -69 -2 -76 -22z m106 -53 c0 -10 -10 -15 -30 -15 -20 0 -30 5 -30 15
0 10 10 15 30 15 20 0 30 -5 30 -15z m24 -78 c18 -14 34 -78 35 -144 2 -63
-16 -32 -25 44 -8 72 -11 78 -36 87 -18 6 -38 6 -55 0 -26 -9 -29 -15 -37 -87
-9 -76 -27 -107 -25 -44 1 66 17 130 35 144 23 17 85 17 108 0z"/>
<path d="M54 115 c-12 -29 5 -61 41 -78 l35 -17 0 42 c0 27 -6 45 -17 54 -24
18 -52 17 -59 -1z"/>
<path d="M388 116 c-12 -9 -18 -27 -18 -54 l0 -42 35 17 c36 17 53 49 41 78
-7 18 -35 19 -58 1z"/>
<path d="M173 113 c-20 -4 -23 -11 -23 -49 l0 -44 100 0 100 0 0 44 c0 41 -2
44 -31 50 -34 6 -110 6 -146 -1z"/>
</g>
</svg>
