<?xml version="1.0" standalone="no"?>
<!DOCTYPE svg PUBLIC "-//W3C//DTD SVG 20010904//EN"
 "http://www.w3.org/TR/2001/REC-SVG-20010904/DTD/svg10.dtd">
<svg version="1.0" xmlns="http://www.w3.org/2000/svg"
 width="22.000000pt" height="22.000000pt" viewBox="0 0 50.000000 50.000000"
 preserveAspectRatio="xMidYMid meet">

<g transform="translate(0.000000,50.000000) scale(0.100000,-0.100000)"
fill="#000000" stroke="none">
<path d="M172 478 c-20 -20 -15 -59 8 -65 28 -7 25 -33 -3 -33 -13 0 -32 -9
-41 -19 -23 -25 -56 -132 -56 -179 0 -26 -6 -41 -20 -50 -39 -24 -23 -75 31
-102 56 -29 262 -29 318 0 54 27 70 78 31 102 -14 9 -20 24 -20 50 0 47 -33
154 -56 179 -9 10 -28 19 -41 19 -28 0 -31 26 -3 33 23 6 28 45 8 65 -7 7 -40
12 -78 12 -38 0 -71 -5 -78 -12z m146 -30 c3 -16 -5 -18 -67 -18 -53 0 -71 3
-71 13 0 24 13 28 74 25 49 -2 61 -7 64 -20z m-38 -53 c0 -10 -10 -15 -30 -15
-20 0 -30 5 -30 15 0 10 10 15 30 15 20 0 30 -5 30 -15z m68 -44 c17 -10 52
-126 52 -173 0 -20 -6 -40 -12 -45 -18 -11 -260 -11 -275 0 -7 5 -13 26 -13
46 0 46 35 162 52 172 7 5 51 9 98 9 47 0 91 -4 98 -9z m-235 -245 c10 -8 17
-26 17 -45 l0 -32 -31 16 c-33 17 -44 37 -35 60 7 18 25 19 49 1z m322 -16 c0
-16 -10 -30 -32 -43 l-33 -19 0 32 c0 35 24 61 50 57 9 -1 15 -13 15 -27z
m-116 14 c27 -6 31 -10 31 -40 l0 -34 -100 0 -100 0 0 34 c0 28 4 35 23 39 36
7 112 7 146 1z"/>
<path d="M196 317 c-18 -14 -34 -78 -35 -144 -2 -61 16 -33 23 37 8 78 23 100
66 100 43 0 58 -22 66 -100 7 -70 25 -98 23 -37 -1 66 -17 130 -35 144 -23 17
-85 17 -108 0z"/>
</g>
</svg>
